<svg xmlns="http://www.w3.org/2000/svg" fill="none" viewBox="0 0 103 85"><path fill="#A96534" d="M38.896 39.739c0 .842-8.427 1.536-18.758 1.536-10.332 0-18.463-.5-18.463-1.342 0-.01-.244-.202-.242-.212.183-.83 8.487-1.498 18.705-1.498 10.331 0 18.758.673 18.758 1.516Z"/><path fill="#fff" d="M40.21 24.057H.12l6.103 56.82h.03c.483 1.877 6.574 3.774 14.022 3.774s13.54-1.897 14.022-3.775h.034l5.878-56.819Z"/><mask id="a" width="41" height="61" x="0" y="24" maskUnits="userSpaceOnUse" style="mask-type:luminance"><path fill="#fff" d="M40.21 24.057H.12l6.103 56.82h.03c.483 1.877 6.574 3.774 14.022 3.774s13.54-1.897 14.022-3.775h.034l5.878-56.819Z"/></mask><g mask="url(#a)"><path fill="#DFDACA" d="m4.44 85.22 22.828-56.705 21.249 1.214-5.95 59.983L4.44 85.22Z" opacity=".3"/></g><path fill="#DFA16E" d="M38.898 39.731s-.257.192-.381.264c-3.556 2.066-10.709 2.506-18.595 2.506-7.595 0-15.807-1.141-18.491-2.78L4.437 67.8h.022c.432 2.4 7.291 4.308 15.69 4.308 8.651 0 15.668-2.025 15.71-4.527h.001l3.038-27.85Z"/><mask id="b" width="38" height="34" x="1" y="39" maskUnits="userSpaceOnUse" style="mask-type:luminance"><path fill="#fff" d="M38.898 39.731s-.257.192-.381.264c-3.556 2.066-10.709 2.506-18.595 2.506-7.595 0-15.807-1.141-18.491-2.78L4.437 67.8h.022c.432 2.4 7.291 4.308 15.69 4.308 8.651 0 15.668-2.025 15.71-4.527h.001l3.038-27.85Z"/></mask><g mask="url(#b)"><path fill="#DFDACA" d="m5.108 83.52 22.828-56.705 21.249 1.214-5.95 59.983L5.108 83.52Z" opacity=".3"/></g><path fill="#A96534" d="m40.193 29.228.128-5.55-40.313.084.311 5.586c-.086.051 4.763 3.702 19.984 3.6 17.175-.117 19.767-3.767 19.89-3.72Z"/><path fill="#DFA16E" d="M20.165 28.773c11.136 0 20.164-2.285 20.164-5.104s-9.028-5.104-20.165-5.104C9.029 18.566 0 20.85 0 23.67s9.028 5.104 20.165 5.104Z"/><path fill="#A96534" d="m38.834 22.637-1.537-3.94-34.42.037-1.382 3.903a.235.235 0 0 0-.036.118c0 1.067 4.129 4.64 18.707 4.587 13.962-.051 18.704-3.52 18.704-4.587a.236.236 0 0 0-.036-.118Z"/><path fill="#DFA16E" d="M20.165 23.382c9.526 0 17.248-1.955 17.248-4.366 0-2.41-7.722-4.365-17.248-4.365S2.916 16.605 2.916 19.016c0 2.411 7.723 4.366 17.248 4.366Z"/><path fill="#A96534" d="M34.37 18.985c0 1.548-6.36 2.804-14.205 2.804-7.846 0-14.206-1.256-14.206-2.804 0-1.549 6.36-2.986 14.206-2.986 7.845 0 14.205 1.437 14.205 2.986Z"/><mask id="c" width="30" height="7" x="5" y="15" maskUnits="userSpaceOnUse" style="mask-type:luminance"><path fill="#fff" d="M34.37 18.985c0 1.548-6.36 2.804-14.205 2.804-7.846 0-14.206-1.256-14.206-2.804 0-1.549 6.36-2.986 14.206-2.986 7.845 0 14.205 1.437 14.205 2.986Z"/></mask><g mask="url(#c)"><path fill="#DFA16E" d="M34.37 20.442c0 1.548-6.36 2.804-14.205 2.804-7.846 0-14.206-1.256-14.206-2.804 0-1.549 6.36-2.986 14.206-2.986 7.845 0 14.205 1.437 14.205 2.986Z" opacity=".2"/></g><path fill="#A96534" d="M12.88 20.329c1.287 0 2.331-.3 2.331-.671 0-.371-1.044-.672-2.332-.672-1.288 0-2.332.3-2.332.672 0 .37 1.044.67 2.332.67Z"/><mask id="d" width="6" height="3" x="10" y="18" maskUnits="userSpaceOnUse" style="mask-type:luminance"><path fill="#fff" d="M12.88 20.329c1.287 0 2.331-.3 2.331-.671 0-.371-1.044-.672-2.332-.672-1.288 0-2.332.3-2.332.672 0 .37 1.044.67 2.332.67Z"/></mask><g mask="url(#d)"><path fill="#DFA16E" d="M12.88 20.693c1.287 0 2.331-.3 2.331-.671 0-.37-1.044-.671-2.332-.671-1.288 0-2.332.3-2.332.67 0 .372 1.044.672 2.332.672Z" opacity=".7"/></g><path fill="#A96534" d="M20.165 65.786a8.367 8.367 0 1 0 0-16.735 8.367 8.367 0 0 0 0 16.735Z"/><path fill="#A96534" d="M20.165 67.246c-.152 0-.302-.003-.452-.01l.017-.367c.295.014.594.013.888 0l.018.366a9.586 9.586 0 0 1-.471.011Zm-1.37-.096a9.798 9.798 0 0 1-.907-.172l.086-.357c.287.07.58.125.872.166l-.051.363Zm2.76-.003-.053-.363c.292-.041.585-.098.872-.167l.086.356a9.712 9.712 0 0 1-.906.174Zm-4.552-.428a9.736 9.736 0 0 1-.858-.342l.152-.333c.27.122.547.233.825.329l-.12.346Zm6.342-.007-.12-.346a9.25 9.25 0 0 0 .824-.33l.153.332c-.28.129-.568.244-.857.344Zm-8.02-.757a9.873 9.873 0 0 1-.777-.499l.212-.299c.242.172.493.333.748.48l-.183.318Zm9.697-.01-.184-.317c.255-.149.507-.31.746-.481l.213.298c-.249.177-.51.346-.775.5Zm-11.2-1.059a9.833 9.833 0 0 1-.668-.636l.265-.253c.204.213.42.42.643.612l-.24.277Zm12.7-.013-.24-.276c.222-.194.438-.4.642-.614l.265.253a9.763 9.763 0 0 1-.668.637Zm-13.974-1.319c-.19-.24-.37-.493-.537-.75l.308-.199c.16.248.334.49.516.722l-.287.227Zm15.245-.015-.288-.227a9.43 9.43 0 0 0 .516-.723l.308.198c-.166.258-.346.51-.536.752Zm-16.245-1.533a9.724 9.724 0 0 1-.386-.839l.34-.137c.11.274.235.545.37.807l-.325.169Zm17.243-.018-.326-.168a9.34 9.34 0 0 0 .37-.808l.34.137a9.75 9.75 0 0 1-.384.839Zm-17.932-1.692a9.705 9.705 0 0 1-.219-.897l.36-.07c.056.29.127.58.21.863l-.351.104Zm18.617-.02-.352-.103c.083-.282.153-.572.209-.863l.36.07a9.742 9.742 0 0 1-.217.896Zm-18.968-1.79a9.967 9.967 0 0 1-.045-.921h.366c.001.295.016.594.044.886l-.365.035Zm19.315-.02-.365-.035c.027-.293.042-.591.042-.886v-.04h.366v.04c0 .307-.015.616-.043.92Zm-18.954-1.789-.365-.034a9.66 9.66 0 0 1 .129-.913l.36.068c-.055.29-.097.585-.124.879Zm18.585-.058a9.286 9.286 0 0 0-.129-.879l.36-.07c.059.3.104.608.134.913l-.365.036Zm-18.255-1.684-.352-.103c.086-.294.187-.588.3-.873l.34.136a9.269 9.269 0 0 0-.288.84Zm17.914-.056a9.211 9.211 0 0 0-.293-.838l.34-.138c.114.284.217.577.305.871l-.352.105Zm-17.258-1.592-.326-.168c.14-.272.294-.54.46-.8l.309.198c-.16.25-.309.508-.443.77Zm16.592-.052a9.412 9.412 0 0 0-.447-.767l.307-.2c.167.257.323.525.466.797l-.326.17Zm-15.635-1.442-.289-.226c.19-.242.392-.477.603-.699l.266.252a9.35 9.35 0 0 0-.58.673Zm14.67-.046a9.448 9.448 0 0 0-.585-.669l.264-.254c.213.221.417.455.607.695l-.287.228Zm-13.449-1.241-.24-.276c.23-.202.474-.395.723-.573l.213.298a9.44 9.44 0 0 0-.696.55Zm12.219-.039a9.357 9.357 0 0 0-.7-.546l.212-.3c.25.177.495.369.727.569l-.239.277Zm-10.778-.995-.184-.317c.265-.154.54-.298.819-.426l.153.333a9.382 9.382 0 0 0-.788.41Zm9.33-.03a9.417 9.417 0 0 0-.79-.404l.151-.334c.28.127.556.268.821.42l-.182.318Zm-7.719-.713-.121-.346c.29-.1.587-.189.885-.262l.087.356a9.42 9.42 0 0 0-.851.252Zm6.103-.019a9.33 9.33 0 0 0-.852-.247l.085-.356c.298.07.596.157.886.257l-.119.346Zm-4.38-.402-.053-.363a9.78 9.78 0 0 1 .918-.09l.018.367a9.314 9.314 0 0 0-.884.086Zm2.655-.009a9.416 9.416 0 0 0-.884-.08l.017-.366c.306.013.615.041.918.083l-.05.363Z"/><path fill="#DFA16E" d="M18.027 56.559H17.5a1.097 1.097 0 0 0-.445-.69 1.175 1.175 0 0 0-.364-.178 1.454 1.454 0 0 0-.417-.06c-.264 0-.503.067-.717.2a1.39 1.39 0 0 0-.508.59c-.125.26-.187.578-.187.955s.062.696.187.955c.126.26.296.456.508.59.214.133.454.2.717.2.145 0 .284-.02.417-.06a1.22 1.22 0 0 0 .364-.177 1.123 1.123 0 0 0 .445-.691h.527c-.04.223-.112.422-.216.598a1.635 1.635 0 0 1-.918.727 1.96 1.96 0 0 1-.619.096c-.371 0-.702-.09-.991-.272a1.868 1.868 0 0 1-.683-.775c-.166-.334-.249-.732-.249-1.191 0-.46.083-.857.249-1.192.166-.334.394-.592.683-.774.29-.182.62-.272.991-.272.22 0 .427.032.62.095.194.064.369.158.525.281.156.122.287.271.392.447.104.174.177.374.216.598Zm2.113 3.064c-.295 0-.554-.07-.777-.211a1.43 1.43 0 0 1-.519-.59 1.994 1.994 0 0 1-.185-.885c0-.34.062-.637.185-.891.125-.254.298-.451.52-.591.222-.14.48-.211.776-.211.295 0 .553.07.774.21.223.141.396.338.52.592.124.254.186.551.186.892 0 .337-.062.632-.187.885a1.411 1.411 0 0 1-.519.589c-.221.14-.48.21-.774.21Zm0-.451a.862.862 0 0 0 .553-.173c.144-.115.252-.266.321-.453.07-.187.104-.39.104-.608 0-.219-.034-.422-.104-.611a1.029 1.029 0 0 0-.321-.458.855.855 0 0 0-.553-.174.855.855 0 0 0-.553.174 1.029 1.029 0 0 0-.322.458 1.74 1.74 0 0 0-.104.61c0 .219.035.422.104.609.07.187.177.338.322.453a.86.86 0 0 0 .553.172Zm3.702-2.886v.426h-1.761v-.426h1.761Zm-1.234 3.268v-3.719c0-.187.044-.343.132-.468a.817.817 0 0 1 .343-.28 1.07 1.07 0 0 1 .444-.094 1.17 1.17 0 0 1 .477.085l-.145.434a2.529 2.529 0 0 0-.106-.032.643.643 0 0 0-.175-.019c-.166 0-.285.042-.36.126-.072.083-.108.206-.108.368v3.6h-.502Zm3.393-3.268v.426H24.24v-.426h1.762Zm-1.234 3.268v-3.719c0-.187.044-.343.132-.468a.817.817 0 0 1 .343-.28 1.07 1.07 0 0 1 .444-.094 1.17 1.17 0 0 1 .477.085l-.145.434a2.529 2.529 0 0 0-.106-.032.644.644 0 0 0-.175-.019c-.166 0-.285.042-.36.126-.072.083-.108.206-.108.368v3.6h-.502Zm3.174.069c-.315 0-.587-.07-.815-.209a1.4 1.4 0 0 1-.526-.587 2.002 2.002 0 0 1-.183-.881c0-.335.061-.63.183-.885.123-.257.295-.457.515-.6a1.38 1.38 0 0 1 .774-.217c.17 0 .339.028.505.085.166.057.317.149.453.277.136.126.244.293.325.502.081.208.122.465.122.77v.213h-2.52v-.434h2.009c0-.185-.037-.35-.11-.494a.834.834 0 0 0-.784-.468c-.2 0-.373.05-.519.149a.98.98 0 0 0-.334.383 1.125 1.125 0 0 0-.117.506v.29c0 .246.043.456.128.627.086.17.206.3.36.39.153.087.33.132.534.132.131 0 .25-.019.357-.056a.766.766 0 0 0 .279-.17.775.775 0 0 0 .18-.285l.486.136c-.051.165-.137.31-.258.434-.12.123-.27.22-.447.29a1.657 1.657 0 0 1-.598.102Zm3.487 0c-.315 0-.587-.07-.815-.209a1.4 1.4 0 0 1-.526-.587 2.002 2.002 0 0 1-.183-.881c0-.335.061-.63.183-.885.124-.257.295-.457.515-.6a1.38 1.38 0 0 1 .774-.217c.17 0 .339.028.505.085.166.057.317.149.453.277.136.126.245.293.325.502.081.208.122.465.122.77v.213h-2.52v-.434h2.01c0-.185-.038-.35-.111-.494a.835.835 0 0 0-.783-.468c-.2 0-.373.05-.52.149a.98.98 0 0 0-.334.383 1.125 1.125 0 0 0-.117.506v.29c0 .246.043.456.128.627.087.17.206.3.36.39.153.087.33.132.534.132.131 0 .25-.019.357-.056a.766.766 0 0 0 .279-.17.774.774 0 0 0 .18-.285l.486.136c-.051.165-.137.31-.258.434-.12.123-.27.22-.447.29a1.656 1.656 0 0 1-.597.102Z"/><path fill="#E3CDA4" d="m30.973 8.547-.012-.108c0 .036.005.072.012.108Z"/><path fill="#9B713D" d="M50 11.636c-10.304 0-18.695-1.374-19.027-3.091l6.248 57.587c0 2.112 5.721 3.824 12.779 3.824 7.057 0 12.778-1.712 12.778-3.824l6.248-57.587c-.332 1.717-8.722 3.091-19.026 3.091Z"/><path fill="#8A6235" d="M31.79 16.083c3.958.718 10.637 1.19 18.21 1.19s14.251-.472 18.21-1.19l.51-4.703H57.483c-2.298.165-4.826.257-7.483.257s-5.186-.092-7.483-.257H31.28l.51 4.703Z"/><path fill="#8A6235" d="m62.045 10.915-6.363 58.643c4.206-.626 7.096-1.925 7.096-3.426l6.249-57.587c-.185.956-2.866 1.804-6.982 2.37Z"/><path fill="#E3CDA4" d="M69.027 8.547a.548.548 0 0 0 .011-.108l-.011.108Z"/><path fill="#0B9991" d="m30.973 8.547-.012-.108c0 .036.005.072.012.108Zm38.054 0a.548.548 0 0 0 .011-.108l-.011.108Z"/><path fill="#0B9991" d="m30.973 8.547-.012-.108c0 .036.005.072.012.108Zm38.054 0a.548.548 0 0 0 .011-.108l-.011.108Z"/><path fill="#0B9991" d="m30.973 8.547-.012-.108c0 .036.005.072.012.108Zm38.054 0a.548.548 0 0 0 .011-.108l-.011.108Z"/><path fill="#D3DFE6" d="M72 11.87c0 1.499-9.85 2.713-22 2.713s-22-1.214-22-2.712V8.69h44v3.18Z"/><path fill="#B5BFC5" d="M59.35 9.949v4.377C66.823 13.893 72 12.956 72 11.87V8.69H59.605l-.256 1.259Z"/><path fill="#F1F1F2" d="M72 8.69c0 1.498-9.85 2.713-22 2.713S28 10.188 28 8.69c0-1.499 9.85-2.713 22-2.713S72 7.192 72 8.69Z"/><path fill="#9FADB6" d="m64.938 6.699-.523.189-6.902 3.507 1.836.75C66.824 10.714 72 9.776 72 8.69c0-.787-2.72-1.496-7.062-1.991Z"/><path fill="#D3DFE6" d="M69.767 8.14c0 1.346-8.85 2.437-19.767 2.437S30.233 9.486 30.233 8.139l1.939-5.94h35.656l1.939 5.94Z"/><path fill="#B5BFC5" d="M67.828 2.199h-12.99l2.675 8.196c7.19-.365 12.254-1.237 12.254-2.256L67.828 2.2Z"/><path fill="#F1F1F2" d="M67.828 2.199c0 1.214-7.982 2.198-17.828 2.198s-17.828-.984-17.828-2.198C32.172.984 40.154 0 50 0s17.828.984 17.828 2.199Z"/><path fill="#9FADB6" d="M55.425 4.293c.443-.017.878-.037 1.305-.058l.035-.002.305-.016h.007c.422-.023.834-.047 1.237-.073l.031-.002a50.302 50.302 0 0 0 .31-.021 87.956 87.956 0 0 0 1.185-.089l.257-.021.042-.004a78.442 78.442 0 0 0 1.1-.102l.221-.022.065-.007a251.48 251.48 0 0 0 .256-.027c.233-.025.461-.051.683-.078l.064-.008.187-.023.08-.01.179-.023.076-.01c.194-.026.383-.052.566-.079l.084-.012.15-.023.093-.014.144-.022.093-.015.139-.023.08-.014a31.338 31.338 0 0 0 .344-.06c.04-.006.079-.014.118-.021l.099-.019.111-.021.1-.02.104-.021.117-.024a21.91 21.91 0 0 0 .258-.057l.087-.02.099-.023.083-.02.098-.024a4.292 4.292 0 0 0 .19-.05l.06-.015.144-.041.06-.018.092-.028.062-.02.085-.027.056-.019.093-.032.038-.014c.042-.015.082-.03.121-.046l.037-.015.078-.032.043-.019.067-.03.038-.018.068-.035.027-.014.086-.048.018-.012.06-.038.024-.017.045-.034.022-.018a.85.85 0 0 0 .04-.035l.017-.015a.686.686 0 0 0 .046-.05l.006-.008a.488.488 0 0 0 .031-.044l.01-.017a.324.324 0 0 0 .037-.089l.004-.016a.286.286 0 0 0 .005-.052C67.828.985 59.846 0 50 0l5.425 4.293h.002Z"/><path fill="#9FADB6" d="M34.034 2.199c.78.21 2.11.472 4.342.712 3.213.346 7.341.537 11.624.537 4.282 0 8.41-.19 11.624-.537 2.232-.24 3.561-.502 4.342-.712-.78-.21-2.11-.472-4.342-.713C58.41 1.14 54.282.95 50 .95c-4.283 0-8.41.19-11.624.537-2.232.24-3.561.503-4.342.713Z"/><path fill="#88949C" d="M51.205.955v1.464h4.968v.892a90.562 90.562 0 0 0 5.45-.4c2.233-.24 3.562-.503 4.343-.713-.78-.21-2.11-.472-4.342-.712-2.91-.314-6.572-.499-10.419-.531Z"/><path fill="#F1F1F2" d="M50 1.898c-4.283 0-8.41.19-11.624.537-.723.078-1.35.158-1.895.238.545.08 1.172.16 1.895.238 3.213.346 7.341.537 11.624.537 4.282 0 8.41-.19 11.624-.537a50.34 50.34 0 0 0 1.895-.238c-.545-.08-1.172-.16-1.895-.238C58.41 2.09 54.282 1.898 50 1.898Z"/><path fill="#392321" d="M35.554 50.767c3.082 1.409 8.4 2.34 14.446 2.34 6.045 0 11.363-.931 14.446-2.34l2.558-23.578C65.6 29.62 58.522 31.468 50 31.468c-8.522 0-15.6-1.848-17.004-4.279l2.558 23.578Z"/><path fill="#B8C8D3" d="m52.342 1.917 2.965 1.43a94.244 94.244 0 0 0 6.316-.436c.723-.078 1.35-.158 1.896-.238a49.9 49.9 0 0 0-1.896-.238c-2.622-.283-5.854-.461-9.281-.518Z"/><path fill="#88949C" d="M42.975 2.522c-.832 0-1.635.037-2.259.105-.14.015-.263.03-.369.046.106.015.228.03.369.046a22.08 22.08 0 0 0 2.26.104c.831 0 1.634-.037 2.259-.104.14-.015.262-.03.368-.046a9.575 9.575 0 0 0-.368-.046 22.163 22.163 0 0 0-2.26-.105Z"/><path fill="#77502B" d="M62.995 64.135c-.659.364-1.503.706-2.504 1.005-2.797.837-6.523 1.298-10.491 1.298-3.969 0-7.694-.46-10.491-1.298-1.002-.3-1.846-.641-2.505-1.005l.1.911c.617.296 1.347.57 2.187.822 2.866.858 6.669 1.33 10.709 1.33s7.843-.472 10.708-1.33c.84-.251 1.57-.527 2.188-.822l.1-.91Z"/><path fill="#664525" d="M60.708 65.868c.84-.251 1.57-.526 2.188-.822l.1-.91c-.66.363-1.504.705-2.505 1.005-1.299.388-2.798.696-4.429.914l-.084.776c1.743-.225 3.346-.549 4.73-.963Z"/><path fill="#000" d="M55.83 52.804c3.558-.383 6.577-1.105 8.616-2.037l2.558-23.578c-.914 1.583-4.235 2.918-8.792 3.658L55.83 52.804Z" opacity=".2"/><path fill="#DEC7ED" fill-rule="evenodd" d="M97.522 80.48v.005c-.233 2.311-7.424 4.166-16.261 4.166-8.984 0-16.267-1.917-16.267-4.281l-3.871-48.824h40.275L97.522 80.48Z" clip-rule="evenodd"/><path fill="#F0D9FF" fill-rule="evenodd" d="M97.522 80.48v.005c-.233 2.311-7.424 4.166-16.261 4.166-4.29 0-8.192-.438-11.098-1.152a1.136 1.136 0 0 1-.02-.22L66.27 34.456h34.897L97.522 80.48Z" clip-rule="evenodd"/><path fill="#5C3D30" fill-rule="evenodd" d="M81.261 26.065c8.58 0 15.97 1.337 19.33 3.262h1.93v2.333c0 3.09-9.518 5.594-21.26 5.594S60 34.75 60 31.66v-2.333h1.93c3.362-1.925 10.752-3.262 19.331-3.262Z" clip-rule="evenodd"/><path fill="#8C6757" d="M81.261 34.922c11.742 0 21.261-2.505 21.261-5.595s-9.519-5.595-21.26-5.595C69.518 23.732 60 26.237 60 29.327s9.518 5.595 21.26 5.595Z"/><path fill="#5C3D30" fill-rule="evenodd" d="M81.261 22.199c7.357 0 13.694 1.146 16.575 2.797h1.656v2.456c0 2.65-8.163 4.797-18.23 4.797-10.07 0-18.231-2.148-18.231-4.797v-2.456h1.656c2.88-1.65 9.218-2.797 16.574-2.797Z" clip-rule="evenodd"/><path fill="#8C6757" fill-rule="evenodd" d="M81.261 29.794c10.041 0 18.231-2.156 18.231-4.798s-8.19-4.797-18.23-4.797c-10.042 0-18.231 2.154-18.231 4.797 0 2.642 8.19 4.798 18.23 4.798Z" clip-rule="evenodd"/><path fill="#5C3D30" fill-rule="evenodd" d="M92.125 25.627c1.32 0 2.397-.283 2.397-.63 0-.348-1.077-.631-2.397-.631-1.32 0-2.396.283-2.396.63 0 .348 1.076.63 2.396.63Z" clip-rule="evenodd"/><path fill="#8C6757" fill-rule="evenodd" d="M98.97 65.536v.006c-.252 2.517-8.084 4.537-17.708 4.537-9.784 0-17.715-2.087-17.715-4.662L62.089 47.03c3.436 1.876 10.73 3.17 19.173 3.17 8.447 0 15.742-1.295 19.176-3.172L98.97 65.536Z" clip-rule="evenodd"/><path fill="#A17E6F" fill-rule="evenodd" d="M98.97 65.536v.006c-.252 2.517-8.084 4.537-17.709 4.537-4.762 0-9.085-.495-12.268-1.299l-1.58-19.928c3.72.84 8.559 1.349 13.848 1.349 8.446 0 15.741-1.296 19.175-3.173L98.97 65.536Z" clip-rule="evenodd"/></svg>