<svg xmlns="http://www.w3.org/2000/svg" fill="none" viewBox="0 0 86 106"><path fill="#AA7E61" fill-rule="evenodd" d="M52.294 106c-44.877-43.658 23.1-53.421 0-106 44.315 48.127-24.917 58.45 0 106Z" clip-rule="evenodd"/><path fill="#C5A388" fill-rule="evenodd" d="M32.623 52.285C39.877 36.452 50.98 21.76 39.737 9.051 27.107-5.222 3.756-.222.333 17.261-2.627 32.384 15.11 41.887 15.11 41.887s-9.67-8.761-5.865-20.968c2.771-8.895 12.836-9.935 19.832-5.186 7.742 5.256 9.052 17.855 3.547 36.552Zm50.481 30.484c2.519-6.155-2.8-15.029-12.189-13.818-6.623.856-13.097 5.712-18.566 18.502 3.204-12.01 3.775-25.144 15.738-27.025 13.44-2.112 22.592 11.79 15.017 22.34Z" clip-rule="evenodd"/></svg>