<svg xmlns="http://www.w3.org/2000/svg" fill="none" viewBox="0 0 600 46"><path fill="#C5A388" fill-opacity=".5" d="M.552 26.93V5.548c2.276-3.408 10.972-.1 14.158-.1 7.17 0 13.288-1.06 19.798-3.8 2.894-1.22 6.599-2.846 9.5-.307.937.82 2.097 1.937 2.758 3.126 1.116 2.01 6.526.972 8.58 1.41 2.345.498 4.033 6.098 7.663 4.167 2.89-1.537 1.737-3.493 5.362-3.493h13.945c4.249 0 9.37 1.784 13.361-.307 2.504-1.311.373-2.477 3.984-2.451 3.665.025 12.513-1.032 14.894 2.206.889 1.21 1.201 2.783 2.636 3.31 1.99.73 3.706.246 5.577.797 4.675 1.375 11.283 1.744 16.028.306 1.066-.323 2.59-.343 3.525-.98 1.051-.717 1.446-2.085 2.513-2.759 2.24-1.415 9.101-.645 9.653 2.39.445 2.45 3.948 1.121 5.363.369 2.153-1.145 2.728-2.382 4.107-4.29 1.055-1.462 1.212-2.276 3.187-2.575 2.595-.393 5.215-.589 7.845-.43 2.821.172 4.447 6.218 8.152 5.394.904-.2 1.177-1.059 1.655-1.716.495-.68 2.306-.367 2.942-.367 1.957 0 5.132.712 6.712-.552 1.272-1.018.581-1.823 3.034-1.41 2.978.502 5.931 2.004 8.765 2.39 2.796.382 5.819.263 8.366-1.01 3.099-1.55 3.961-1.532 7.14-1.135 1.034.13 2.497-.261 3.433.307 1.07.65 1.343 1.148 2.758 1.287 3.037.298 6.142.123 9.194.123 2.491 0 2.881-.547 4.842-1.778 3.41-2.141 7.029-1.38 10.91-1.103 4.496.32 8.474 3.559 12.933 3.923 3.953.322 6.335-.38 9.96-1.533 2.263-.72 4.532-.914 6.742-.03 5.786 2.314 11.217-.031 17.008-.031 3.559 0 8.251-.041 11.707.797 3.088.748 6.266 1.235 9.623 1.655 3.125.39 5.915 1.64 9.102 1.9 3.159.258 6.128-1.243 9.194-1.87 1.905-.39 3.689-.614 5.577-.95 5.535-.984 11.131-4.148 16.825-4.29 3.165-.08 4.438.373 7.233 1.655 2.492 1.143 6.637 3.779 9.439 3.861 13.731.404 27.605.115 41.28-.52 3.133-.147 3.301 1.018 5.976 1.623 3.118.706 6.095 1.503 9.255 1.9 8.767 1.104 19.836 3.813 28.624 1.287 4.096-1.177 2.63-3.493.03-4.872-1.9-3.572 13.507-2.176 20.319-2.176h18.541c2.765 0 6.865-.838 9.5.092 4.837 1.707 9.268 3.77 14.496 3.77 5.951 0 12.242.653 18.142-.307 11.993-1.952 24.83 1.424 36.285-2.697 4.56-1.64 8.922-2.555 13.423-3.555 2.562-.57 4.413-2.527 4.413 0 0 1.187.054 5.113 0 6.252-.078 1.65-.109 1.96 0 3.493.231 3.236 0 6.56 0 9.807 0 6.089.552 12.102.552 18.143 0 3.98.176 2.106-3.571 2.106-3.951 0-8.54.958-12.427.958-14.566 0-29.175.386-43.732-.03-53.965-1.542-107.937.582-161.903.582h-76.861c-28.772 0-57.22 2.12-85.962.674-41.615 0-76.393 2.238-117.115 0-11.631-.639-27.356 0-39 0-7.003 0-11.573-1.154-18.5 0-2.479.413-8.527-.408-11 0-4.105.677-9.254-.092-13.432 0-3.156.07-12.141 1.674-15.016-.551-.601-.466 0-5.422 0-6.19V26.93Z"/></svg>