<svg xmlns="http://www.w3.org/2000/svg" fill="none" viewBox="0 0 48 65"><path fill="#4D3029" d="M26.758 53.352a56.694 56.694 0 0 0-.32-2.533c-.116-.843-.201-1.691-.324-2.533-.268-1.681-.49-3.374-.841-5.044-.168-.836-.307-1.681-.5-2.512-.188-.833-.396-1.661-.562-2.503-.342-1.681-.796-3.336-1.191-5.019-.38-1.73-.858-3.437-1.218-5.155-.32-1.732-.738-3.434-.976-5.178-.64-3.448-1.225-6.99-1.18-10.577.04-3.585.83-7.128 2.004-10.49l.006-.017c.277-.78-.392-1.587-1.2-1.406C9.466 2.836.71 15.554.04 31.243c-.76 17.83 9.212 32.736 22.272 33.292 1.55.066 3.07-.08 4.554-.408.306-.417.506-.69.81-1.108-.212-3.243-.5-6.465-.92-9.667Z"/><path fill="#4D3029" d="M47.338 33.258C48.087 15.693 38.42.966 25.646 0l-1.1.812a92.986 92.986 0 0 0-2.125 11.702l-.198 1.224-.01.066c-.042.41-.074.821-.127 1.233-.085.845-.236 1.696-.27 2.549-.043.853-.06 1.71-.086 2.571-.024.432.009.859.05 1.286.038.427.062.857.112 1.283.117 1.721.576 3.388 1.008 5.048.183.839.554 1.627.858 2.428.312.802.644 1.582.978 2.38l1.059 2.426.53 1.218c.167.41.302.83.455 1.245.305.83.57 1.674.853 2.513.282.84.474 1.703.715 2.556.936 3.415 1.624 6.908 1.954 10.438.258 2.73.31 5.477.185 8.212-.037.815.844 1.368 1.559.974 8.483-4.679 14.73-15.749 15.292-28.906Z"/><path fill="#E8CC9E" d="M26.635 2.857c3.892 1.303 7.345 3.852 10.124 6.949l1.048 1.168.914 1.274.91 1.282c.28.442.522.907.785 1.36 1.09 1.799 1.814 3.779 2.555 5.733l.81 3.031c.155.501.233 1.016.305 1.533l.226 1.546c.362 2.058.323 4.14.345 6.206-.018 2.065-.367 4.112-.571 6.146-.44 2.009-.905 4.004-1.452 5.962.042-2.054.202-4.067.322-6.073l-.034-3.014c-.042-1 .082-2-.07-2.991-.234-1.979-.231-3.972-.703-5.899l-.254-1.457c-.075-.487-.156-.974-.313-1.441l-.808-2.833c-1.233-3.72-3.03-7.241-5.4-10.388-2.38-3.134-5.284-5.932-8.74-8.094Zm-5.56 60.67c-3.892-1.303-7.345-3.852-10.124-6.949L9.903 55.41l-.914-1.274-.91-1.282c-.28-.442-.522-.907-.785-1.36-1.09-1.799-1.814-3.779-2.555-5.733l-.81-3.031c-.155-.501-.233-1.016-.305-1.533l-.226-1.546c-.362-2.058-.323-4.14-.345-6.206.018-2.065.367-4.112.57-6.146.44-2.009.906-4.004 1.453-5.962-.042 2.054-.202 4.067-.322 6.073l.034 3.014c.042 1-.082 2 .069 2.991.235 1.979.232 3.972.704 5.899l.254 1.457c.075.487.156.974.313 1.441l.808 2.833c1.233 3.72 3.029 7.241 5.399 10.388 2.38 3.133 5.284 5.931 8.74 8.094Z"/></svg>