<svg xmlns="http://www.w3.org/2000/svg" fill="none" viewBox="0 0 212 206"><path fill="#A96534" d="M195.375 93.7c-.437 1.864-19.442-.974-42.303-6.336-22.862-5.362-40.593-10.687-40.156-12.552.005-.02-.434-.574-.425-.594.834-1.742 19.556 1.09 42.165 6.393 22.861 5.362 41.156 11.224 40.719 13.089Z"/><path fill="#fff" d="m206.421 59.684-88.708-20.808-15.984 128.893.066.015c.094 4.406 12.588 11.763 29.068 15.629 16.479 3.865 30.942 2.831 32.985-1.074l.076.018 42.497-122.673Z"/><mask id="a" width="106" height="148" x="101" y="38" maskUnits="userSpaceOnUse" style="mask-type:luminance"><path fill="#fff" d="m206.421 59.684-88.708-20.808-15.984 128.893.066.015c.094 4.406 12.588 11.763 29.068 15.629 16.479 3.865 30.942 2.831 32.985-1.074l.076.018 42.497-122.673Z"/></mask><g mask="url(#a)"><path fill="#DFDACA" d="M95.53 176.454 175.47 62.83l46.388 13.715-44.298 129.638-82.031-29.729Z" opacity=".3"/></g><path fill="#DFA16E" d="M195.384 93.686s-.668.29-.981.385c-8.939 2.725-24.995-.014-42.444-4.106-16.805-3.942-34.385-10.73-39.474-15.75l-7.923 63.694.049.011c-.288 5.536 13.898 13.317 32.481 17.675 19.144 4.491 35.722 3.653 37.111-1.863l.004.001 21.177-60.047Z"/><mask id="b" width="92" height="85" x="104" y="74" maskUnits="userSpaceOnUse" style="mask-type:luminance"><path fill="#fff" d="M195.384 93.686s-.668.29-.981.385c-8.939 2.725-24.995-.014-42.444-4.106-16.805-3.942-34.385-10.73-39.474-15.75l-7.923 63.694.049.011c-.288 5.536 13.898 13.317 32.481 17.675 19.144 4.491 35.722 3.653 37.111-1.863l.004.001 21.177-60.047Z"/></mask><g mask="url(#b)"><path fill="#DFDACA" d="m97.89 173.038 79.94-113.623 46.388 13.716-44.298 129.637-82.032-29.73Z" opacity=".3"/></g><path fill="#A96534" d="m203.7 71.115 3.165-12.212-89.246-20.738-2.21 12.52c-.216.07 8.619 10.665 42.351 18.337 38.063 8.657 45.692 1.927 45.94 2.093Z"/><path fill="#DFA16E" d="M159.62 59.714c24.641 5.78 45.804 5.41 47.267-.827 1.463-6.237-17.328-15.979-41.97-21.759-24.642-5.78-45.804-5.41-47.267.828-1.463 6.237 17.328 15.978 41.97 21.758Z"/><path fill="#A96534" d="m204.114 55.828-1.355-9.517-76.179-17.783-5.085 7.919a.538.538 0 0 0-.141.243c-.553 2.36 6.727 12.412 39.013 19.86 30.92 7.132 43.211 1.917 43.765-.443a.537.537 0 0 0-.018-.279Z"/><path fill="#DFA16E" d="M162.418 47.785c21.078 4.945 39.18 4.628 40.431-.707 1.252-5.335-14.821-13.668-35.9-18.612-21.078-4.945-39.18-4.628-40.431.707-1.252 5.335 14.821 13.668 35.9 18.613Z"/><path fill="#A96534" d="M196.133 45.43c-.804 3.426-15.529 2.903-32.889-1.17-17.359-4.071-30.781-10.15-29.977-13.577.804-3.426 15.623-3.306 32.983.766 17.359 4.072 30.686 10.554 29.883 13.98Z"/><mask id="c" width="64" height="20" x="133" y="28" maskUnits="userSpaceOnUse" style="mask-type:luminance"><path fill="#fff" d="M196.133 45.43c-.804 3.426-15.529 2.903-32.889-1.17-17.359-4.071-30.781-10.15-29.977-13.577.804-3.426 15.623-3.306 32.983.766 17.359 4.072 30.686 10.554 29.883 13.98Z"/></mask><g mask="url(#c)"><path fill="#DFA16E" d="M195.376 48.653c-.803 3.426-15.528 2.903-32.888-1.169s-30.781-10.15-29.977-13.577c.804-3.426 15.622-3.306 32.982.766s30.687 10.553 29.883 13.98Z" opacity=".2"/></g><path fill="#A96534" d="M147.882 37.249c2.85.668 5.316.545 5.508-.275.193-.82-1.962-2.028-4.811-2.696-2.85-.669-5.317-.545-5.509.275-.193.82 1.962 2.028 4.812 2.696Z"/><mask id="d" width="11" height="5" x="143" y="33" maskUnits="userSpaceOnUse" style="mask-type:luminance"><path fill="#fff" d="M147.882 37.249c2.85.668 5.316.545 5.508-.275.193-.82-1.962-2.028-4.811-2.696-2.85-.669-5.317-.545-5.509.275-.193.82 1.962 2.028 4.812 2.696Z"/></mask><g mask="url(#d)"><path fill="#DFA16E" d="M147.693 38.055c2.849.669 5.316.545 5.508-.275.193-.82-1.962-2.028-4.811-2.696-2.85-.669-5.317-.545-5.509.275-.193.82 1.962 2.028 4.812 2.696Z" opacity=".7"/></g><path fill="#A96534" d="M140.409 141.613c10.225 2.399 20.459-3.946 22.857-14.171 2.399-10.225-3.946-20.459-14.171-22.857-10.225-2.399-20.459 3.946-22.857 14.171-2.399 10.225 3.946 20.459 14.171 22.857Zm-.758 3.231a21.51 21.51 0 0 1-.992-.257l.227-.801a22.25 22.25 0 0 0 1.966.459l-.151.819c-.35-.064-.7-.138-1.05-.22Zm-2.981-.923a22.099 22.099 0 0 1-1.915-.852l.374-.744c.599.301 1.219.578 1.843.82l-.302.776Zm6.108 1.426.073-.83c.668.059 1.346.087 2.016.082l.006.832a22.206 22.206 0 0 1-2.095-.084Zm-9.849-3.31a21.965 21.965 0 0 1-1.719-1.201l.508-.66c.533.412 1.09.8 1.655 1.157l-.444.704Zm14.038 3.277-.086-.829a20.776 20.776 0 0 0 1.994-.304l.166.817c-.685.138-1.383.245-2.074.316Zm-17.354-5.839a22.566 22.566 0 0 1-1.46-1.506l.625-.551c.444.504.917.992 1.405 1.449l-.57.608Zm21.461 5.011-.242-.797a21.35 21.35 0 0 0 1.901-.678l.316.77c-.642.265-1.307.501-1.975.705Zm-24.231-8.155a22.22 22.22 0 0 1-1.149-1.754l.717-.424a21.89 21.89 0 0 0 1.106 1.689l-.674.489Zm28.106 6.562-.388-.737a21.247 21.247 0 0 0 1.74-1.024l.455.698a21.97 21.97 0 0 1-1.807 1.063Zm-30.235-10.171a22.567 22.567 0 0 1-.799-1.939l.785-.28c.226.631.484 1.259.769 1.865l-.755.354Zm33.742 7.878-.52-.65a21.563 21.563 0 0 0 1.516-1.333l.579.598c-.501.485-1.03.951-1.575 1.385Zm-35.152-11.823a22.077 22.077 0 0 1-.417-2.056l.823-.127c.102.663.237 1.329.402 1.978l-.808.205Zm38.164 8.91-.634-.541c.435-.509.851-1.046 1.236-1.596l.683.479a22.491 22.491 0 0 1-1.285 1.658Zm-38.8-13.052c-.04-.694-.046-1.4-.019-2.097l.833.032c-.026.671-.021 1.35.017 2.018l-.831.047Zm41.204 9.62-.725-.411c.33-.582.636-1.187.91-1.8l.761.339a22.164 22.164 0 0 1-.946 1.872Zm-41.041-13.806c.093-.687.22-1.381.378-2.061l.812.188a21.826 21.826 0 0 0-.365 1.985l-.825-.112Zm42.749 9.98-.79-.266c.213-.634.399-1.287.553-1.94l.02-.088.811.19-.021.088a22.502 22.502 0 0 1-.573 2.016Zm-41.011-13.795-.79-.264c.221-.662.476-1.32.758-1.955l.762.338a21.08 21.08 0 0 0-.73 1.881Zm41.153 9.516c.089-.664.146-1.341.171-2.01l.832.031a21.847 21.847 0 0 1-.177 2.089l-.826-.11Zm-39.518-13.2-.726-.41c.342-.607.718-1.205 1.117-1.776l.683.477a20.676 20.676 0 0 0-1.074 1.709Zm39.667 9.173a20.765 20.765 0 0 0-.215-2.006l.824-.129c.107.689.182 1.391.223 2.086l-.832.049Zm-37.361-12.479-.634-.54c.45-.529.932-1.045 1.433-1.531l.581.597c-.483.469-.947.964-1.38 1.474Zm36.741 8.497a21.523 21.523 0 0 0-.592-1.93l.784-.282c.235.653.442 1.328.615 2.005l-.807.207Zm-33.849-11.307-.521-.649a22.227 22.227 0 0 1 1.697-1.233l.457.696c-.56.367-1.11.767-1.633 1.186Zm32.484 7.513a21.232 21.232 0 0 0-.946-1.783l.716-.425a22 22 0 0 1 .983 1.852l-.753.356Zm-29.113-9.727-.39-.736a22.004 22.004 0 0 1 1.899-.891l.317.769c-.619.255-1.233.544-1.826.858Zm27.057 6.258a21.055 21.055 0 0 0-1.264-1.573l.624-.553c.461.522.903 1.072 1.313 1.635l-.673.491Zm-23.331-7.797-.244-.797a22.336 22.336 0 0 1 2.033-.518l.166.816c-.656.135-1.314.302-1.955.499Zm20.659 4.777a21.384 21.384 0 0 0-1.539-1.306l.508-.66c.554.426 1.092.883 1.599 1.358l-.568.608Zm-16.71-5.584-.088-.828a21.56 21.56 0 0 1 2.094-.121l.008.832c-.67.007-1.348.047-2.014.117Zm13.515 3.126c-.568-.357-1.16-.69-1.758-.989l.372-.745c.623.312 1.238.658 1.828 1.028l-.442.706Zm-9.485-3.165.071-.83c.693.06 1.392.153 2.079.279l-.15.819a21.144 21.144 0 0 0-2-.268Zm5.881 1.36a21.141 21.141 0 0 0-1.914-.637l.226-.802c.67.188 1.339.411 1.989.662l-.301.777Z"/><path fill="#DFA16E" d="m140.615 119.468-1.167-.274a2.504 2.504 0 0 0-.627-1.756 2.682 2.682 0 0 0-.712-.585 3.3 3.3 0 0 0-.892-.348 3.027 3.027 0 0 0-1.69.07c-.54.185-1.017.532-1.431 1.041-.411.509-.714 1.181-.91 2.016-.196.835-.223 1.572-.082 2.211.145.64.418 1.163.82 1.568.404.406.899.678 1.482.815.321.075.638.103.954.084.316-.018.615-.086.897-.202a2.527 2.527 0 0 0 1.342-1.299l1.168.274a3.987 3.987 0 0 1-.79 1.21 3.707 3.707 0 0 1-2.407 1.134c-.46.042-.933.005-1.42-.109-.822-.193-1.506-.565-2.052-1.117s-.916-1.241-1.109-2.068c-.194-.827-.171-1.749.067-2.766.239-1.017.628-1.852 1.169-2.507s1.179-1.108 1.913-1.359c.735-.252 1.513-.281 2.336-.088.486.114.926.292 1.32.533.397.242.736.54 1.017.894.282.351.493.748.634 1.192.142.441.199.919.17 1.436Zm3.084 7.875c-.653-.153-1.19-.443-1.609-.869a3.25 3.25 0 0 1-.843-1.574c-.142-.622-.126-1.307.05-2.054.176-.753.467-1.379.872-1.877a3.247 3.247 0 0 1 1.455-1.039c.566-.195 1.175-.216 1.828-.063s1.188.443 1.604.868c.42.426.701.952.842 1.578.145.627.128 1.317-.048 2.07-.175.747-.467 1.367-.874 1.861-.404.495-.889.84-1.454 1.035-.563.196-1.171.217-1.823.064Zm.234-.998c.496.116.933.085 1.313-.094.38-.179.695-.458.946-.836.251-.379.433-.809.547-1.293.113-.483.142-.951.086-1.405a2.343 2.343 0 0 0-.474-1.179c-.259-.332-.637-.557-1.133-.673-.496-.116-.934-.083-1.315.099-.38.182-.696.464-.948.845a3.977 3.977 0 0 0-.547 1.297 3.948 3.948 0 0 0-.086 1.401c.057.45.216.84.476 1.169.261.33.639.553 1.135.669Zm9.69-4.462-.221.941-3.898-.914.221-.941 3.898.914Zm-4.427 6.59 1.93-8.229c.097-.414.276-.736.535-.967a1.87 1.87 0 0 1 .904-.444 2.462 2.462 0 0 1 1.032.024c.273.064.491.138.653.223.163.084.282.155.358.213l-.546.885a5.784 5.784 0 0 0-.219-.126 1.476 1.476 0 0 0-.376-.133c-.367-.086-.654-.055-.86.091-.204.148-.348.401-.432.759l-1.868 7.965-1.111-.261Zm9.204-5.47-.221.942-3.898-.914.221-.942 3.898.914Zm-4.427 6.591 1.93-8.229c.098-.414.276-.737.535-.967.26-.231.561-.379.904-.444a2.462 2.462 0 0 1 1.032.024c.274.064.491.138.654.222.162.085.281.156.357.213l-.546.886a6.481 6.481 0 0 0-.218-.126 1.452 1.452 0 0 0-.376-.133c-.368-.086-.655-.056-.861.091-.204.148-.347.4-.431.758l-1.869 7.966-1.111-.261Zm6.986 1.798c-.696-.164-1.261-.459-1.694-.885a3.165 3.165 0 0 1-.858-1.572c-.139-.622-.122-1.303.052-2.044.174-.74.462-1.361.864-1.863.406-.504.89-.858 1.451-1.06.564-.206 1.173-.232 1.826-.079.377.089.734.239 1.072.45.337.212.624.494.859.848.236.35.389.776.459 1.279.071.504.027 1.093-.131 1.768l-.11.47-5.574-1.307.225-.96 4.444 1.042c.096-.408.1-.791.011-1.15a1.894 1.894 0 0 0-.509-.919c-.252-.254-.578-.428-.98-.523-.443-.103-.851-.083-1.226.06a2.237 2.237 0 0 0-.938.674 2.573 2.573 0 0 0-.522 1.06l-.15.64c-.128.547-.142 1.032-.043 1.455a2.1 2.1 0 0 0 .593 1.049c.294.274.665.463 1.114.569.291.068.565.089.819.063.259-.029.494-.106.705-.232a1.75 1.75 0 0 0 .548-.537l1.003.553a2.446 2.446 0 0 1-.795.827c-.331.21-.71.346-1.139.408a3.756 3.756 0 0 1-1.376-.084Zm7.716 1.81c-.696-.164-1.261-.459-1.694-.885a3.165 3.165 0 0 1-.858-1.572c-.139-.622-.122-1.303.052-2.044.174-.74.462-1.362.864-1.863.406-.504.89-.858 1.451-1.061.564-.205 1.173-.231 1.826-.078.377.089.734.239 1.072.45.337.212.624.494.859.847.236.35.389.777.459 1.28.071.504.027 1.093-.131 1.768l-.11.47-5.574-1.307.225-.961 4.444 1.043c.096-.408.1-.791.011-1.15a1.894 1.894 0 0 0-.509-.919 1.98 1.98 0 0 0-.98-.523c-.443-.104-.851-.084-1.226.06a2.228 2.228 0 0 0-.938.674 2.567 2.567 0 0 0-.522 1.06l-.15.64c-.128.546-.142 1.031-.043 1.455.103.422.301.771.593 1.048.294.275.665.464 1.114.57.291.068.565.089.819.063.259-.029.494-.106.705-.232a1.75 1.75 0 0 0 .548-.537l1.003.553a2.446 2.446 0 0 1-.795.827c-.331.21-.71.346-1.139.408a3.8 3.8 0 0 1-1.376-.084Z"/><path fill="#E3CDA4" d="m8.715 25.053-.033-.31c0 .104.014.207.033.31Z"/><path fill="#9B713D" d="M64.5 34.116c-30.21 0-54.81-4.03-55.785-9.064l18.319 168.835c0 6.193 16.774 11.213 37.465 11.213 20.691 0 37.464-5.02 37.464-11.213l18.319-168.835c-.973 5.035-25.574 9.064-55.782 9.064Z"/><path fill="#8A6235" d="M11.113 47.153c11.604 2.105 31.184 3.488 53.387 3.488 22.202 0 41.783-1.383 53.386-3.488l1.496-13.79H86.438c-6.735.485-14.148.753-21.938.753-7.79 0-15.206-.268-21.94-.753H9.618l1.495 13.79Z"/><path fill="#8A6235" d="M99.813 32 81.16 203.933c12.33-1.835 20.805-5.643 20.805-10.045l18.319-168.835c-.542 2.802-8.402 5.29-20.47 6.949Z"/><path fill="#E3CDA4" d="M120.283 25.053c.021-.103.033-.206.033-.31l-.033.31Z"/><path fill="#0B9991" d="m8.715 25.053-.033-.31c0 .104.014.207.033.31Zm111.568 0c.021-.103.033-.206.033-.31l-.033.31Z"/><path fill="#0B9991" d="m8.715 25.053-.033-.31c0 .104.014.207.033.31Zm111.568 0c.021-.103.033-.206.033-.31l-.033.31Z"/><path fill="#0B9991" d="m8.715 25.053-.033-.31c0 .104.014.207.033.31Zm111.568 0c.021-.103.033-.206.033-.31l-.033.31Z"/><path fill="#D3DFE6" d="M128.999 34.802c0 4.393-28.878 7.954-64.5 7.954S0 39.196 0 34.802v-9.324h128.999v9.324Z"/><path fill="#B5BFC5" d="M91.91 29.168v12.834c21.915-1.27 37.089-4.016 37.089-7.2v-9.325h-36.34l-.749 3.69Z"/><path fill="#F1F1F2" d="M128.999 25.477c0 4.393-28.878 7.954-64.5 7.954S0 29.87 0 25.477s28.877-7.953 64.5-7.953c35.621 0 64.499 3.56 64.499 7.953Z"/><path fill="#9FADB6" d="m108.296 19.639-1.534.555-20.235 10.28 5.383 2.204c21.915-1.27 37.09-4.018 37.09-7.201-.001-2.307-7.974-4.386-20.704-5.838Z"/><path fill="#D3DFE6" d="M122.453 23.863c0 3.947-25.947 7.146-57.953 7.146-32.008 0-57.954-3.2-57.954-7.146L12.23 6.446h104.537l5.685 17.417Z"/><path fill="#B5BFC5" d="M116.768 6.446H78.683l7.844 24.029c21.082-1.07 35.927-3.627 35.927-6.612l-5.686-17.417Z"/><path fill="#F1F1F2" d="M116.768 6.446c0 3.56-23.401 6.445-52.268 6.445-28.868 0-52.27-2.886-52.27-6.445C12.23 2.886 35.633 0 64.5 0c28.867 0 52.268 2.886 52.268 6.446Z"/><path fill="#9FADB6" d="M80.407 12.586c1.297-.05 2.573-.108 3.825-.17l.102-.006.895-.045.02-.002c1.235-.066 2.445-.136 3.627-.214l.091-.006a147.091 147.091 0 0 0 .91-.06 257.296 257.296 0 0 0 3.473-.261l.754-.063.123-.011a221.4 221.4 0 0 0 3.068-.283l.157-.015c.217-.021.433-.044.647-.066l.19-.02.64-.067.11-.012c.684-.075 1.353-.151 2.005-.23l.184-.022.549-.068.235-.03.525-.067c.074-.01.149-.019.222-.03a121.352 121.352 0 0 0 1.907-.266l.439-.066.274-.042.421-.066.272-.044.409-.066.234-.04a104.221 104.221 0 0 0 1.009-.176c.117-.02.23-.042.345-.063.098-.018.193-.037.29-.054l.326-.063.296-.059.304-.062.343-.07a70.93 70.93 0 0 0 .754-.165l.255-.059.29-.068c.082-.019.164-.04.246-.058l.286-.072a23.13 23.13 0 0 0 .731-.192l.425-.12c.06-.016.116-.034.176-.052l.269-.081.18-.057.25-.081.165-.055.272-.095c.039-.015.077-.027.113-.04.122-.045.241-.09.354-.135l.107-.044c.079-.031.158-.063.232-.096.043-.017.082-.035.123-.053l.198-.09.111-.052c.069-.034.135-.068.2-.102.025-.014.054-.028.08-.041a4.917 4.917 0 0 0 .477-.287l.072-.051c.047-.033.09-.065.131-.098l.067-.053a2.08 2.08 0 0 0 .118-.104l.048-.044c.049-.049.095-.099.136-.148l.017-.023a1.43 1.43 0 0 0 .091-.127c.012-.017.02-.034.029-.05a1.003 1.003 0 0 0 .108-.261c.004-.016.01-.032.012-.048a.875.875 0 0 0 .016-.153c0-3.56-23.401-6.445-52.269-6.445l15.904 12.586h.005Z"/><path fill="#9FADB6" d="M17.69 6.446c2.289.616 6.185 1.384 12.731 2.089 9.42 1.015 21.523 1.574 34.079 1.574 12.555 0 24.657-.56 34.078-1.574 6.546-.705 10.442-1.473 12.731-2.09-2.289-.615-6.184-1.383-12.73-2.088-9.421-1.015-21.524-1.575-34.08-1.575-12.555 0-24.658.56-34.078 1.575-6.546.705-10.441 1.473-12.732 2.089Z"/><path fill="#88949C" d="M68.034 2.799v4.293H82.6v2.615c5.816-.267 11.237-.662 15.98-1.173 6.545-.705 10.441-1.473 12.73-2.089-2.289-.615-6.184-1.384-12.73-2.088-8.533-.92-19.268-1.463-30.545-1.558Z"/><path fill="#F1F1F2" d="M64.5 5.565c-12.556 0-24.659.56-34.079 1.575-2.12.228-3.959.463-5.558.697 1.6.235 3.438.47 5.558.698 9.42 1.015 21.523 1.574 34.079 1.574 12.555 0 24.658-.56 34.078-1.574 2.119-.229 3.959-.463 5.558-.698a145.04 145.04 0 0 0-5.558-.697C89.158 6.124 77.055 5.565 64.5 5.565Z"/><path fill="#392321" d="M22.147 148.841c9.037 4.129 24.629 6.856 42.353 6.856 17.722 0 33.315-2.727 42.352-6.856l7.5-69.127C110.236 86.84 89.484 92.259 64.5 92.259c-24.984 0-45.736-5.42-49.852-12.545l7.499 69.127Z"/><path fill="#B8C8D3" d="m71.365 5.621 8.694 4.193c6.777-.263 13.094-.694 18.519-1.28 2.118-.228 3.958-.462 5.557-.697a145.22 145.22 0 0 0-5.557-.697c-7.688-.83-17.164-1.354-27.213-1.519Z"/><path fill="#88949C" d="M43.905 7.395c-2.44 0-4.793.108-6.624.306a29.6 29.6 0 0 0-1.08.135c.31.045.668.091 1.08.135 1.83.198 4.183.306 6.624.306 2.44 0 4.793-.108 6.624-.306.413-.044.77-.09 1.08-.135-.31-.045-.667-.091-1.08-.135-1.832-.197-4.184-.306-6.624-.306Z"/><path fill="#77502B" d="M102.6 188.033c-1.932 1.066-4.407 2.068-7.343 2.946-8.2 2.455-19.124 3.806-30.757 3.806-11.636 0-22.559-1.351-30.758-3.806-2.938-.878-5.412-1.88-7.343-2.946l.29 2.67c1.812.867 3.952 1.673 6.414 2.409 8.402 2.515 19.551 3.899 31.397 3.899 11.844 0 22.994-1.384 31.395-3.899 2.462-.736 4.602-1.543 6.415-2.409l.29-2.67Z"/><path fill="#664525" d="M95.895 193.113c2.462-.736 4.602-1.543 6.415-2.409l.29-2.67c-1.932 1.066-4.407 2.068-7.343 2.946-3.807 1.139-8.203 2.041-12.984 2.68l-.246 2.276c5.11-.66 9.81-1.609 13.868-2.823Z"/><path fill="#000" d="M81.591 154.811c10.434-1.122 19.283-3.238 25.261-5.97l7.5-69.127c-2.68 4.64-12.414 8.555-25.775 10.723l-6.986 64.374Z" opacity=".2"/></svg>