<svg width="108" height="60" viewBox="0 0 108 60" fill="none" xmlns="http://www.w3.org/2000/svg">
<path d="M0 4C0 1.79086 1.79086 0 4 0H95C97.2091 0 99 1.79086 99 4V56C99 58.2091 97.2091 60 95 60H4C1.79086 60 0 58.2091 0 56V4Z" fill="url(#paint0_linear_5_181)"/>
<path d="M107.5 21C107 27 104.5 27.3333 99 30V14C104 14 108.083 14.0064 107.5 21Z" fill="#553422"/>
<path d="M18.756 28.946L18.62 28.912C19.028 26.838 17.77 25.818 16.376 25.818C14.982 25.818 13.452 26.838 13.282 28.844C13.078 31.36 14.88 32.72 16.886 32.72C18.654 32.72 20.592 31.666 21.476 29.456C22.632 26.566 21.714 22.18 16.682 21.738C11.548 21.296 6.414 24.764 6.754 35.338C7.026 43.158 11.616 46.558 16.104 46.558C19.98 46.558 23.754 44.076 24.604 39.758L24.876 39.826C24.094 44.62 19.708 47.374 15.186 47.374C10.018 47.374 4.612 43.702 4.374 35.27C4.034 23.914 11.446 20.582 16.92 21.33C22.87 22.146 24.4 26.43 23.278 29.694C22.36 32.346 19.776 33.638 17.396 33.638C14.642 33.638 12.126 31.972 12.568 28.844C12.874 26.634 14.676 25.512 16.24 25.512C17.872 25.512 19.266 26.634 18.756 28.946Z" fill="white"/>
<path d="M26.5861 38.5C26.5861 32.652 30.6321 29.728 34.6441 29.728C38.6561 29.728 42.6341 32.618 42.6341 38.5C42.6341 44.382 38.6561 47.272 34.6441 47.272C30.6321 47.272 26.5861 44.348 26.5861 38.5ZM40.2541 38.364C40.2541 32.788 37.4661 30.034 34.6441 30.034C31.8221 30.034 28.9661 32.822 28.9661 38.364C28.9661 44.076 31.7881 46.932 34.6101 46.932C37.4321 46.932 40.2541 44.076 40.2541 38.364Z" fill="white"/>
<path d="M45.4625 26.464C45.4625 22.962 47.9445 21.466 50.2225 21.466C51.4465 21.466 52.6365 21.908 53.3165 22.724C54.7785 24.458 53.9285 26.906 51.7185 27.008C50.5285 27.042 49.4405 26.6 49.3725 25.036H49.5085C49.6445 26.464 50.6645 26.838 51.7525 26.77C53.7585 26.634 54.2345 24.254 53.0785 22.996C52.6025 22.452 51.8545 22.18 51.1065 22.18C49.4745 22.18 47.7065 23.438 47.6725 26.464V27.96C47.6725 28.912 47.7405 29.83 49.8825 29.83H53.3845V30.068H47.6725V44.722C47.6725 45.912 47.6725 46.762 52.1945 46.762V47H42.9805V46.762C45.4965 46.762 45.4625 45.912 45.4625 44.722V32.006C45.4625 30.85 45.4625 30.068 42.9805 30.068V29.83H46.9245C46.1425 29.83 45.4625 29.32 45.4625 28.674V26.464Z" fill="white"/>
<path d="M55.8882 26.464C55.8882 22.962 58.3703 21.466 60.6483 21.466C61.8723 21.466 63.0623 21.908 63.7423 22.724C65.2043 24.458 64.3542 26.906 62.1442 27.008C60.9542 27.042 59.8663 26.6 59.7983 25.036H59.9342C60.0703 26.464 61.0902 26.838 62.1782 26.77C64.1842 26.634 64.6602 24.254 63.5042 22.996C63.0282 22.452 62.2802 22.18 61.5322 22.18C59.9002 22.18 58.1323 23.438 58.0983 26.464V27.96C58.0983 28.912 58.1663 29.83 60.3083 29.83H63.8102V30.068H58.0983V44.722C58.0983 45.912 58.0983 46.762 62.6203 46.762V47H53.4062V46.762C55.9223 46.762 55.8882 45.912 55.8882 44.722V32.006C55.8882 30.85 55.8883 30.068 53.4062 30.068V29.83H57.3503C56.5683 29.83 55.8882 29.32 55.8882 28.674V26.464Z" fill="white"/>
<path d="M78.7487 41.696C77.5247 45.3 74.4647 47.034 71.4047 47.034C68.4127 47.034 65.3867 45.402 63.9927 42.274C61.6467 37.038 64.2307 29.456 71.4727 29.66C79.9047 29.898 80.3467 40.778 71.7787 41.05C68.4467 41.152 66.0327 39.86 65.3867 37.514C65.4887 41.696 68.0727 45.81 72.6627 45.81C75.0427 45.81 77.3887 44.484 78.5447 41.594L78.7487 41.696ZM65.5227 35.61C65.2167 38.738 67.8347 40.744 71.7107 40.642C77.0147 40.472 77.1167 30.204 71.4727 30.034C67.9707 29.932 66.0327 32.516 65.5227 35.61Z" fill="white"/>
<path d="M95.3503 41.696C94.1263 45.3 91.0663 47.034 88.0063 47.034C85.0143 47.034 81.9883 45.402 80.5943 42.274C78.2483 37.038 80.8323 29.456 88.0743 29.66C96.5063 29.898 96.9483 40.778 88.3803 41.05C85.0483 41.152 82.6343 39.86 81.9883 37.514C82.0903 41.696 84.6743 45.81 89.2643 45.81C91.6443 45.81 93.9903 44.484 95.1463 41.594L95.3503 41.696ZM82.1243 35.61C81.8183 38.738 84.4363 40.744 88.3123 40.642C93.6163 40.472 93.7183 30.204 88.0743 30.034C84.5723 29.932 82.6343 32.516 82.1243 35.61Z" fill="white"/>
<path d="M75.6719 16.4929C75.6188 16.0223 75.4001 15.6577 75.0156 15.3991C74.6312 15.1373 74.1473 15.0064 73.5639 15.0064C73.1463 15.0064 72.785 15.0727 72.4801 15.2053C72.1752 15.3345 71.9382 15.5135 71.7692 15.7422C71.6035 15.9676 71.5206 16.2244 71.5206 16.5128C71.5206 16.7547 71.5769 16.9635 71.6896 17.1392C71.8056 17.3149 71.9564 17.4624 72.142 17.5817C72.331 17.6977 72.5331 17.7955 72.7486 17.875C72.964 17.9512 73.1712 18.0142 73.37 18.0639L74.3643 18.3224C74.6892 18.402 75.0223 18.5097 75.3636 18.6456C75.705 18.7815 76.0215 18.9605 76.3132 19.1825C76.6049 19.4046 76.8402 19.6797 77.0192 20.0078C77.2015 20.3359 77.2926 20.7287 77.2926 21.1861C77.2926 21.7628 77.1435 22.2749 76.8452 22.7223C76.5502 23.1697 76.121 23.5227 75.5575 23.7812C74.9974 24.0398 74.3196 24.169 73.5241 24.169C72.7618 24.169 72.1023 24.0481 71.5455 23.8061C70.9886 23.5642 70.5528 23.2211 70.2379 22.777C69.9231 22.3295 69.7491 21.7992 69.7159 21.1861H71.2571C71.2869 21.554 71.4063 21.8606 71.6151 22.1058C71.8272 22.3478 72.0973 22.5284 72.4254 22.6477C72.7569 22.7637 73.1198 22.8217 73.5142 22.8217C73.9484 22.8217 74.3345 22.7538 74.6726 22.6179C75.014 22.4787 75.2824 22.2865 75.478 22.0412C75.6735 21.7926 75.7713 21.5026 75.7713 21.1712C75.7713 20.8696 75.6851 20.6226 75.5128 20.4304C75.3438 20.2382 75.1134 20.0791 74.8217 19.9531C74.5334 19.8272 74.2069 19.7161 73.8423 19.62L72.6392 19.2919C71.8239 19.0698 71.1776 18.7434 70.7003 18.3125C70.2263 17.8816 69.9893 17.3116 69.9893 16.6023C69.9893 16.0156 70.1484 15.5036 70.4666 15.0661C70.7848 14.6286 71.2157 14.2888 71.7592 14.0469C72.3028 13.8016 72.916 13.679 73.5987 13.679C74.2881 13.679 74.8963 13.8 75.4233 14.0419C75.9536 14.2839 76.3712 14.617 76.6761 15.0412C76.9811 15.4621 77.1402 15.946 77.1534 16.4929H75.6719Z" fill="white"/>
<path d="M81.1956 19.4659V24H79.7091V13.8182H81.1757V17.6065H81.2701C81.4491 17.1955 81.7225 16.8691 82.0904 16.6271C82.4583 16.3852 82.9389 16.2642 83.5322 16.2642C84.0559 16.2642 84.5133 16.3719 84.9044 16.5874C85.2988 16.8028 85.6037 17.1243 85.8191 17.5518C86.0379 17.9761 86.1473 18.5064 86.1473 19.1428V24H84.6608V19.3217C84.6608 18.7616 84.5166 18.3274 84.2282 18.0192C83.9399 17.7076 83.5388 17.5518 83.0251 17.5518C82.6738 17.5518 82.3589 17.6264 82.0805 17.7756C81.8054 17.9247 81.5883 18.1435 81.4292 18.4318C81.2734 18.7169 81.1956 19.0616 81.1956 19.4659Z" fill="white"/>
<path d="M92.0475 24.1541C91.3316 24.1541 90.7069 23.9901 90.1733 23.6619C89.6396 23.3338 89.2253 22.8748 88.9304 22.2848C88.6354 21.6948 88.4879 21.0054 88.4879 20.2166C88.4879 19.4245 88.6354 18.7318 88.9304 18.1385C89.2253 17.5452 89.6396 17.0845 90.1733 16.7564C90.7069 16.4283 91.3316 16.2642 92.0475 16.2642C92.7635 16.2642 93.3882 16.4283 93.9218 16.7564C94.4555 17.0845 94.8698 17.5452 95.1647 18.1385C95.4597 18.7318 95.6072 19.4245 95.6072 20.2166C95.6072 21.0054 95.4597 21.6948 95.1647 22.2848C94.8698 22.8748 94.4555 23.3338 93.9218 23.6619C93.3882 23.9901 92.7635 24.1541 92.0475 24.1541ZM92.0525 22.9062C92.5165 22.9062 92.901 22.7836 93.2059 22.5384C93.5109 22.2931 93.7362 21.9666 93.8821 21.5589C94.0312 21.1513 94.1058 20.7022 94.1058 20.2116C94.1058 19.7244 94.0312 19.277 93.8821 18.8693C93.7362 18.4583 93.5109 18.1286 93.2059 17.88C92.901 17.6314 92.5165 17.5071 92.0525 17.5071C91.5852 17.5071 91.1974 17.6314 90.8892 17.88C90.5842 18.1286 90.3572 18.4583 90.2081 18.8693C90.0622 19.277 89.9893 19.7244 89.9893 20.2116C89.9893 20.7022 90.0622 21.1513 90.2081 21.5589C90.3572 21.9666 90.5842 22.2931 90.8892 22.5384C91.1974 22.7836 91.5852 22.9062 92.0525 22.9062Z" fill="white"/>
<path d="M97.9665 26.8636V16.3636H99.4182V17.6016H99.5425C99.6286 17.4425 99.7529 17.2585 99.9153 17.0497C100.078 16.8409 100.303 16.6586 100.591 16.5028C100.88 16.3437 101.261 16.2642 101.735 16.2642C102.351 16.2642 102.902 16.42 103.386 16.7315C103.869 17.0431 104.249 17.4922 104.524 18.0788C104.802 18.6655 104.942 19.3714 104.942 20.1967C104.942 21.022 104.804 21.7296 104.529 22.3196C104.254 22.9063 103.876 23.3587 103.395 23.6768C102.915 23.9917 102.366 24.1491 101.75 24.1491C101.286 24.1491 100.906 24.0713 100.611 23.9155C100.32 23.7597 100.091 23.5774 99.9253 23.3686C99.7596 23.1598 99.632 22.9742 99.5425 22.8118H99.453V26.8636H97.9665ZM99.4232 20.1818C99.4232 20.7187 99.501 21.1894 99.6568 21.5938C99.8126 21.9981 100.038 22.3146 100.333 22.5433C100.628 22.7687 100.989 22.8814 101.417 22.8814C101.861 22.8814 102.232 22.7637 102.53 22.5284C102.829 22.2898 103.054 21.9666 103.207 21.5589C103.362 21.1513 103.44 20.6922 103.44 20.1818C103.44 19.678 103.364 19.2256 103.212 18.8246C103.062 18.4235 102.837 18.107 102.535 17.875C102.237 17.643 101.864 17.527 101.417 17.527C100.986 17.527 100.621 17.638 100.323 17.8601C100.028 18.0821 99.8043 18.392 99.6518 18.7898C99.4994 19.1875 99.4232 19.6515 99.4232 20.1818Z" fill="white"/>
<defs>
<linearGradient id="paint0_linear_5_181" x1="0" y1="0" x2="112.652" y2="48.0521" gradientUnits="userSpaceOnUse">
<stop stop-color="#583822"/>
<stop offset="1" stop-color="#543322"/>
</linearGradient>
</defs>
</svg>
